# xmcd
# 
# Track frame offsets:
#     150
#     25818
#     55529
#     82656
#     114308
#     145286
#     182716
#     214891
# 
# Disc length: 3181
# 
# Revision: 1
# Processed by: cddbd v1.5.2PL0 Copyright (c) Steve Scherf et al.
# Submitted via: fre:ac v1.1beta1pre5
# 
DISCID=600c6b08
DTITLE=Various Artist - Jazz For A Day At The Beach
DYEAR=2003
DGENRE=Jazz
TTITLE0=Pat Martino - 1-01 Road Show
TTITLE1=Woddy Shaw - 1-02 Sun Bath
TTITLE2=Richie Cole - 1-03 Malibu Breeze
TTITLE3=Russell Gunn - 1-04 Wade In The Water
TTITLE4=Jack McDuff - 1-05 Electric Surf Board
TTITLE5=Arturo O'Farrill - 1-06 Wave
TTITLE6=Sonny Criss - 1-07 Criss Craft
TTITLE7=Cecil Brooks III - 1-08 Sunshine
EXTD=YEAR: 2003
EXTT0=
EXTT1=
EXTT2=
EXTT3=
EXTT4=
EXTT5=
EXTT6=
EXTT7=
PLAYORDER=
